<svg xmlns="http://www.w3.org/2000/svg" width="112" height="14" fill="none" viewBox="0 0 112 14"><path fill="#000" d="M11.34 11.8481L10.428 8.94415C10.428 8.94415 9.22801 10.0961 7.42801 10.0961C5.62801 10.0961 4.45201 8.92015 4.45201 7.04815C4.45201 5.17615 5.74801 4.04815 7.38001 4.04815C9.03601 4.04815 10.092 4.84015 10.428 5.10415L11.268 2.20015C11.268 2.20015 9.90001 0.952148 6.87601 0.952148C3.63601 0.952148 0.588013 3.16015 0.588013 7.12015C0.588013 11.0561 3.58801 13.2641 6.82801 13.2641C9.97201 13.2641 11.22 11.9441 11.34 11.8481Z"/><path fill="#000" d="M24.8141 7.12015C24.8141 3.30415 22.0061 0.952148 18.2621 0.952148C14.5181 0.952148 11.6861 3.30415 11.6861 7.12015C11.6861 10.9361 14.5181 13.2641 18.2621 13.2641C22.0061 13.2641 24.8141 10.9361 24.8141 7.12015ZM20.9501 7.04815C20.9501 8.80015 19.9421 10.1201 18.2621 10.1201C16.5581 10.1201 15.5741 8.80015 15.5741 7.04815C15.5741 5.29615 16.5581 3.97615 18.2621 3.97615C19.9421 3.97615 20.9501 5.29615 20.9501 7.04815Z"/><path fill="#000" d="M44.727 13.0001V5.87215C44.727 3.01615 43.647 0.952148 40.623 0.952148C38.871 0.952148 37.695 1.67215 36.855 3.11215C36.255 1.50415 34.959 0.952148 33.327 0.952148C31.815 0.952148 30.663 1.86415 30.063 2.84815L30.015 2.87215L30.039 1.16815H26.199V13.0001H30.039V6.92815C30.039 5.29615 30.615 4.09615 31.959 4.09615C33.207 4.09615 33.543 5.10415 33.543 6.56815V13.0001H37.383V6.92815C37.383 5.29615 37.959 4.09615 39.303 4.09615C40.623 4.09615 40.863 5.29615 40.863 6.56815V13.0001H44.727Z"/><path fill="#000" d="M65.2236 13.0001V5.87215C65.2236 3.01615 64.1436 0.952148 61.1196 0.952148C59.3676 0.952148 58.1916 1.67215 57.3516 3.11215C56.7516 1.50415 55.4556 0.952148 53.8236 0.952148C52.3116 0.952148 51.1596 1.86415 50.5596 2.84815L50.5116 2.87215L50.5356 1.16815H46.6956V13.0001H50.5356V6.92815C50.5356 5.29615 51.1116 4.09615 52.4556 4.09615C53.7036 4.09615 54.0396 5.10415 54.0396 6.56815V13.0001H57.8796V6.92815C57.8796 5.29615 58.4556 4.09615 59.7996 4.09615C61.1196 4.09615 61.3596 5.29615 61.3596 6.56815V13.0001H65.2236Z"/><path fill="#000" d="M78.8081 6.73615C78.8081 3.28015 76.3841 0.952148 72.8801 0.952148C69.3761 0.952148 66.4961 3.18415 66.4961 7.09615C66.4961 11.0081 69.1601 13.2641 72.8081 13.2641C76.4801 13.2641 78.0401 11.6321 78.4241 11.3441L76.9121 9.35215C76.2401 9.80815 74.8961 10.4801 73.3601 10.4801C71.8001 10.4801 70.5041 9.71215 70.3361 8.00815H78.7601C78.7601 8.00815 78.8081 7.31215 78.8081 6.73615ZM75.2321 5.82415H70.3601C70.4081 4.69615 71.2241 3.44815 72.8081 3.44815C74.4161 3.44815 75.2081 4.74415 75.2321 5.82415Z"/><path fill="#000" d="M88.087 1.16815C88.087 1.16815 87.679 0.952148 86.887 0.952148C85.615 0.952148 84.631 1.55215 83.959 2.84815H83.9109L83.935 1.16815H80.095V13.0001H83.935V7.74415C83.935 6.18415 84.415 4.40815 86.311 4.40815C86.983 4.40815 87.487 4.57615 87.7029 4.69615H87.8709L88.087 1.16815Z"/><path fill="#000" d="M98.835 11.8481L97.923 8.94415C97.923 8.94415 96.723 10.0961 94.923 10.0961C93.123 10.0961 91.947 8.92015 91.947 7.04815C91.947 5.17615 93.243 4.04815 94.875 4.04815C96.531 4.04815 97.587 4.84015 97.923 5.10415L98.763 2.20015C98.763 2.20015 97.395 0.952148 94.371 0.952148C91.131 0.952148 88.083 3.16015 88.083 7.12015C88.083 11.0561 91.083 13.2641 94.323 13.2641C97.467 13.2641 98.715 11.9441 98.835 11.8481Z"/><path fill="#000" d="M111.493 6.73615C111.493 3.28015 109.069 0.952148 105.565 0.952148C102.061 0.952148 99.1811 3.18415 99.1811 7.09615C99.1811 11.0081 101.845 13.2641 105.493 13.2641C109.165 13.2641 110.725 11.6321 111.109 11.3441L109.597 9.35215C108.925 9.80815 107.581 10.4801 106.045 10.4801C104.485 10.4801 103.189 9.71215 103.021 8.00815H111.445C111.445 8.00815 111.493 7.31215 111.493 6.73615ZM107.917 5.82415H103.045C103.093 4.69615 103.909 3.44815 105.493 3.44815C107.101 3.44815 107.893 4.74415 107.917 5.82415Z"/></svg>