<svg xmlns="http://www.w3.org/2000/svg" width="552" height="424" fill="none" viewBox="0 0 552 424"><g filter="url(#filter0_dd)"><path fill="#F8FAFD" d="M12 21C12 14.3726 17.3726 9 24 9H528C534.627 9 540 14.3726 540 21V397C540 403.627 534.627 409 528 409H24C17.3726 409 12 403.627 12 397V21Z"/><path fill="#D3E0F1" d="M12 21C12 14.3726 17.3726 9 24 9H528C534.627 9 540 14.3726 540 21V41H12V21Z"/><circle cx="28" cy="25" r="4" fill="#7187A5"/><circle cx="40" cy="25" r="4" fill="#7187A5"/><circle cx="52" cy="25" r="4" fill="#7187A5"/></g><rect width="160" height="6" x="312" y="155" fill="#7187A5" rx="3"/><rect width="98" height="6" x="312" y="169" fill="#7187A5" rx="3"/><rect width="72" height="6" x="312" y="199" fill="#D3E0F1" rx="3"/><rect width="61" height="6" x="312" y="213" fill="#D3E0F1" rx="3"/><rect width="72" height="24" x="312" y="243" fill="#34CBAD" rx="4"/><rect width="32" height="6" x="332" y="252" fill="#AEEADE" rx="3"/><g filter="url(#filter1_dd)"><g clip-path="url(#clip0)"><rect width="200" height="180" x="80" y="119" fill="#fff" rx="8"/><g clip-path="url(#clip1)"><rect width="176" height="120" x="92" y="131" fill="#F9A86C" rx="8"/><circle cx="257" cy="223" r="40" fill="#fff" opacity=".2"/><circle cx="102" cy="150" r="54" fill="#fff" opacity=".2"/><path fill="#fff" fill-rule="evenodd" d="M178.927 222C178.927 222.552 178.476 223 177.92 223H164.85C164.294 223 163.843 222.551 163.844 221.998L163.893 196.329L156.181 218.728C156.013 219.216 155.499 219.497 154.994 219.377L148.773 217.9C148.229 217.771 147.895 217.226 148.03 216.686L158.352 175.473C158.428 175.17 158.642 174.92 158.93 174.796L167.894 170.951C168.534 170.676 168.705 169.851 168.301 169.285C166.575 166.871 166.074 163.821 169.211 161.739C169.211 161.739 173.055 159.024 180.001 159C186.946 158.974 190.688 161.659 190.688 161.659C193.682 163.55 193.342 166.916 191.727 169.211C191.306 169.809 191.458 170.711 192.133 171.001L200.971 174.796C201.258 174.92 201.472 175.169 201.548 175.471L211.969 216.689C212.106 217.227 211.774 217.773 211.231 217.904L205.054 219.397C204.549 219.519 204.033 219.239 203.864 218.75L196.109 196.329L196.059 222.002C196.058 222.553 195.608 223 195.053 223H182.081C181.525 223 181.074 222.552 181.074 222V165.668C185.013 165.535 188.055 164.692 188.055 163.673C188.055 162.561 184.446 161.659 180.001 161.659C175.555 161.659 171.947 162.561 171.947 163.673C171.947 164.692 174.988 165.535 178.927 165.668V222ZM189.074 205.133C188.726 204.659 188.056 204.554 187.579 204.899C187.1 205.245 186.995 205.91 187.343 206.385L192.405 213.291C192.753 213.766 193.422 213.871 193.9 213.525C194.378 213.18 194.484 212.515 194.136 212.04L189.074 205.133ZM170.928 205.133C171.275 204.659 171.945 204.554 172.423 204.899C172.901 205.245 173.007 205.91 172.658 206.385L167.596 213.291C167.249 213.766 166.579 213.871 166.101 213.525C165.623 213.18 165.517 212.515 165.865 212.04L170.928 205.133Z" clip-rule="evenodd"/></g><circle cx="95.5" cy="204.5" r="30.5" fill="#fff" opacity=".2"/><rect width="107" height="6" x="92" y="263" fill="#D3E0F1" rx="3"/><rect width="50" height="6" x="92" y="281" fill="#D3E0F1" rx="3"/><rect width="50" height="6" x="218" y="281" fill="#D3E0F1" rx="3"/></g></g><defs><filter id="filter0_dd" width="552" height="424" x="0" y="0" color-interpolation-filters="sRGB" filterUnits="userSpaceOnUse"><feFlood flood-opacity="0" result="BackgroundImageFix"/><feColorMatrix in="SourceAlpha" type="matrix" values="0 0 0 0 0 0 0 0 0 0 0 0 0 0 0 0 0 0 127 0"/><feOffset dy="3"/><feGaussianBlur stdDeviation="6"/><feColorMatrix type="matrix" values="0 0 0 0 0.156863 0 0 0 0 0.2 0 0 0 0 0.254902 0 0 0 0.1 0"/><feBlend in2="BackgroundImageFix" mode="normal" result="effect1_dropShadow"/><feColorMatrix in="SourceAlpha" type="matrix" values="0 0 0 0 0 0 0 0 0 0 0 0 0 0 0 0 0 0 127 0"/><feOffset/><feGaussianBlur stdDeviation=".5"/><feColorMatrix type="matrix" values="0 0 0 0 0.156863 0 0 0 0 0.2 0 0 0 0 0.254902 0 0 0 0.2 0"/><feBlend in2="effect1_dropShadow" mode="normal" result="effect2_dropShadow"/><feBlend in="SourceGraphic" in2="effect2_dropShadow" mode="normal" result="shape"/></filter><filter id="filter1_dd" width="208" height="188" x="76" y="116" color-interpolation-filters="sRGB" filterUnits="userSpaceOnUse"><feFlood flood-opacity="0" result="BackgroundImageFix"/><feColorMatrix in="SourceAlpha" type="matrix" values="0 0 0 0 0 0 0 0 0 0 0 0 0 0 0 0 0 0 127 0"/><feOffset/><feGaussianBlur stdDeviation=".5"/><feColorMatrix type="matrix" values="0 0 0 0 0.156863 0 0 0 0 0.2 0 0 0 0 0.254902 0 0 0 0.2 0"/><feBlend in2="BackgroundImageFix" mode="normal" result="effect1_dropShadow"/><feColorMatrix in="SourceAlpha" type="matrix" values="0 0 0 0 0 0 0 0 0 0 0 0 0 0 0 0 0 0 127 0"/><feOffset dy="1"/><feGaussianBlur stdDeviation="2"/><feColorMatrix type="matrix" values="0 0 0 0 0.156863 0 0 0 0 0.2 0 0 0 0 0.254902 0 0 0 0.1 0"/><feBlend in2="effect1_dropShadow" mode="normal" result="effect2_dropShadow"/><feBlend in="SourceGraphic" in2="effect2_dropShadow" mode="normal" result="shape"/></filter><clipPath id="clip0"><rect width="200" height="180" x="80" y="119" fill="#fff" rx="8"/></clipPath><clipPath id="clip1"><rect width="176" height="120" x="92" y="131" fill="#fff" rx="8"/></clipPath></defs></svg>