<svg xmlns="http://www.w3.org/2000/svg" width="75" height="75" fill="none" viewBox="0 0 75 75"><circle cx="37.5" cy="37.5" r="37.5" fill="#2C7EA1"/><path fill="#fff" d="M41.947 18.4045C42.6154 17.7361 43.699 17.7361 44.3678 18.4045L67.4633 41.5039C68.1317 42.1723 68.1317 43.2564 67.4633 43.9251L65.3516 46.0368L39.8357 20.517L41.947 18.4045Z"/><path fill="#fff" d="M46.8033 32.6762L32.7401 18.6172C32.0717 17.9488 30.9869 17.9488 30.3193 18.618L7.51732 41.434C6.84894 42.1027 6.84894 43.1868 7.5181 43.8551L20.3721 56.7045C21.0405 57.3725 22.1226 57.3733 22.7921 56.7053L37.4639 42.0619L52.1788 56.7138C52.846 57.3783 53.9238 57.3791 54.5926 56.7154L62.6287 48.7387L46.8033 32.6762ZM26.1655 42.4041C23.5181 42.4041 21.4577 40.2484 21.4577 37.6962C21.4577 35.1428 23.5181 32.988 26.1655 32.988C28.813 32.988 30.8734 35.1432 30.8734 37.6962C30.8726 40.2492 28.8122 42.4041 26.1655 42.4041Z"/><path fill="#fff" d="M27.8534 38.1033C27.8487 37.8824 27.7593 37.6845 27.5847 37.51C27.4545 37.3793 27.3137 37.3031 27.1636 37.2809C27.0108 37.2568 26.865 37.2654 26.7258 37.3074C26.5886 37.3474 26.4152 37.4124 26.2052 37.503C26.0127 37.5889 25.8658 37.6499 25.7643 37.6853C25.6624 37.716 25.573 37.7281 25.4956 37.7219C25.4206 37.7129 25.3498 37.6752 25.2833 37.6091C25.1904 37.5162 25.1507 37.4124 25.1639 37.2973C25.1772 37.1822 25.204 37.0585 25.4248 36.8373L25.8642 36.3979L25.5726 36.1063L25.2503 36.4286C25.2347 36.4353 25.2227 36.4341 25.2137 36.4255L24.9715 36.1701C24.9606 36.1592 24.9474 36.1545 24.9314 36.1569C24.9159 36.1545 24.9026 36.1592 24.8918 36.1701L24.6328 36.4286C24.6219 36.4399 24.6165 36.4539 24.6165 36.4718C24.6165 36.485 24.6219 36.4971 24.6328 36.5084L24.8848 36.7471C24.8933 36.756 24.8945 36.7681 24.8879 36.7836C24.7374 36.987 24.6647 37.195 24.669 37.4073C24.6756 37.6173 24.7631 37.8062 24.931 37.9742C25.0613 38.1049 25.202 38.1834 25.3521 38.2094C25.5003 38.2339 25.6461 38.225 25.7895 38.1834C25.9334 38.1414 26.108 38.0749 26.3137 37.9843C26.5015 37.9069 26.6465 37.8525 26.748 37.8218C26.8499 37.7864 26.9405 37.7732 27.0202 37.7817C27.0975 37.7884 27.1671 37.8226 27.229 37.8848C27.3196 37.975 27.3604 38.0827 27.3514 38.2063C27.3448 38.3276 27.2931 38.4727 27.1625 38.6029L26.5217 39.2208L26.7985 39.519L27.2387 39.122C27.2542 39.1154 27.2663 39.1166 27.2752 39.1255L27.4941 39.351C27.505 39.3619 27.5175 39.3674 27.5307 39.3674C27.5482 39.3674 27.563 39.3619 27.5738 39.351L27.8328 39.0925C27.8437 39.0812 27.8484 39.0684 27.846 39.0524C27.848 39.0369 27.8437 39.0236 27.8328 39.0124L27.6108 38.7966C27.6018 38.788 27.6007 38.7756 27.6073 38.76C27.776 38.5431 27.8581 38.3241 27.8534 38.1033Z"/></svg>