<svg xmlns="http://www.w3.org/2000/svg" width="24" height="24" fill="none" viewBox="0 0 24 24"><path fill="#000" fill-rule="evenodd" d="M11.3416 17.139C8.32666 15.3629 6.53989 13.611 5.60454 12.09C4.63548 10.5141 4.60003 9.2319 4.96166 8.36595C5.3238 7.49878 6.14365 6.89728 7.21649 6.77332C8.28855 6.64946 9.63639 7.00862 10.9424 8.14811L11.4447 8.58631L11.9388 8.13899C14.4619 5.85503 17.2641 6.70052 18.017 8.38329C18.4012 9.24186 18.3851 10.5116 17.3857 12.0798C16.4167 13.6002 14.5421 15.357 11.3416 17.139ZM11.4289 6.61393C9.98755 5.53804 8.43349 5.12273 7.04433 5.28324C5.49379 5.46239 4.17168 6.36511 3.57751 7.78792C2.98282 9.21195 3.17669 11.0055 4.3268 12.8757C5.4738 14.741 7.5909 16.7273 10.9593 18.6513L11.3212 18.858L11.6878 18.6598C15.2429 16.7389 17.4598 14.7544 18.6507 12.886C19.8475 11.008 20.0266 9.20206 19.3862 7.77068C18.1595 5.02895 14.3987 4.35223 11.4289 6.61393Z" clip-rule="evenodd"/></svg>