<svg xmlns="http://www.w3.org/2000/svg" width="24" height="24" fill="none" viewBox="0 0 24 24"><path fill="#000" fill-rule="evenodd" d="M15.5 8.5C15.5 10.433 13.933 12 12 12C10.067 12 8.5 10.433 8.5 8.5C8.5 6.567 10.067 5 12 5C13.933 5 15.5 6.567 15.5 8.5ZM14 8.5C14 9.60457 13.1046 10.5 12 10.5C10.8954 10.5 10 9.60457 10 8.5C10 7.39543 10.8954 6.5 12 6.5C13.1046 6.5 14 7.39543 14 8.5Z" clip-rule="evenodd"/><path fill="#000" fill-rule="evenodd" d="M12.7 13.4C15.6625 13.4 18.1474 15.4448 18.8203 18.2C18.9377 18.6807 19 19.1831 19 19.7H5C5 19.1831 5.06225 18.6807 5.17967 18.2C5.8526 15.4448 8.33751 13.4 11.3 13.4H12.7ZM6.73903 18.2C7.3689 16.2836 9.17287 14.9 11.3 14.9H12.7C14.8271 14.9 16.6311 16.2836 17.261 18.2H6.73903Z" clip-rule="evenodd"/></svg>